<?xml version="1.0" encoding="utf-8"?>
<!-- Generator: Adobe Illustrator 18.1.0, SVG Export Plug-In . SVG Version: 6.00 Build 0)  -->
<svg version="1.1" id="Layer_1" xmlns="http://www.w3.org/2000/svg" xmlns:xlink="http://www.w3.org/1999/xlink" x="0px" y="0px"
	 viewBox="0 0 400.3 400" enable-background="new 0 0 400.3 400" xml:space="preserve">
<circle xmlns="http://www.w3.org/2000/svg" cx="200" cy="190" r="150" fill="#BF2026"/>
<path fill="#FFFFFF" d=" M149.3,226.4h-17.4l-16-28.7c-4.2-8-9.4-17.4-12.7-26.4h-0.5
	c0.5,9.9,0.5,20.2,0.5,32.5v22.1H88.2v-73.4h19.8l15.5,27.3c4.2,8,8.9,16.9,12.2,25.4h0.5c-0.9-9.9-1.4-19.8-1.4-31.1v-21.6h15.5
	v73.9H149.3z M211,226.4h-47.1v-73.9h45.6v13.6h-28.7v15.5h27.3v13.6h-27.3v17.4h30.6v13.6H211z M293.3,226.4H275l-6.1-32
	c-1.4-7.5-2.8-14.6-3.3-23.1l0,0c-1.4,8.5-2.4,15.5-4.2,23.1l-7.1,32h-18.8L218,152.5h17.9l5.6,30.6c1.9,8.9,3.3,18.4,4.2,25.9l0,0
	c1.4-8,2.8-16.9,4.7-25.9l6.1-30.1h17.9l6.1,31.1c1.9,8.5,2.8,16.5,3.8,24.9l0,0c0.9-8.5,2.8-16.9,4.2-25.9l6.1-30.1h16.9
	L293.3,226.4z"/>
</svg>
