<?xml version="1.0" encoding="utf-8"?>
<!-- Generator: Adobe Illustrator 19.2.1, SVG Export Plug-In . SVG Version: 6.00 Build 0)  -->
<svg version="1.1" id="Layer_1" xmlns="http://www.w3.org/2000/svg" xmlns:xlink="http://www.w3.org/1999/xlink" x="0px" y="0px"
	 viewBox="0 0 400.3 400" style="enable-background:new 0 0 400.3 400;" xml:space="preserve">
<circle xmlns="http://www.w3.org/2000/svg" cx="200" cy="190" r="150" fill="#E29700"/>
<path d="M273.6,276.5h-147v-21h147V276.5z M294.7,161
	c-1.2,0-2.2-0.3-3.3-0.7l-17.7,53.2v21h-147v-21l-17.7-53.2c-1,0.4-2.1,0.7-3.3,0.7c-5.8,0-10.5-4.7-10.5-10.5
	c0-5.8,4.7-10.5,10.5-10.5s10.5,4.7,10.5,10.5c0,2.2-0.8,4.1-1.9,5.7l22.9,15.3l8.5-42.4c-4.8-1-8.5-5-8.5-10.1
	c0-5.8,4.7-10.5,10.5-10.5s10.5,4.7,10.5,10.5c0,3.4-1.8,6.3-4.3,8.3l25.3,33.7l17.7-53.2c-4.2-1.4-7.2-5.2-7.2-9.8
	c0-5.8,4.7-10.5,10.5-10.5s10.5,4.7,10.5,10.5c0,4.6-3.1,8.5-7.2,9.8l17.7,53.2l25.3-33.7c-2.5-1.9-4.3-4.8-4.3-8.3
	c0-5.8,4.7-10.5,10.5-10.5s10.5,4.7,10.5,10.5c0,5.1-3.7,9.1-8.5,10.1l8.5,42.4l22.9-15.3c-1.1-1.7-1.9-3.6-1.9-5.7
	c0-5.8,4.7-10.5,10.5-10.5s10.5,4.7,10.5,10.5C305.2,156.3,300.5,161,294.7,161z" fill="#FFFFFF"/>
</svg>
