<?xml version="1.0" encoding="utf-8"?>
<!-- Generator: Adobe Illustrator 18.1.0, SVG Export Plug-In . SVG Version: 6.00 Build 0)  -->
<svg version="1.1" id="Layer_1" xmlns="http://www.w3.org/2000/svg" xmlns:xlink="http://www.w3.org/1999/xlink" x="0px" y="0px"
	 viewBox="0 0 400.3 400" enable-background="new 0 0 400.3 400" xml:space="preserve">
<circle xmlns="http://www.w3.org/2000/svg" cx="210" cy="170" r="150" fill="#F15A29"/>
<path fill="#FFFFFF" d=" M307.9,102.1c0,0-0.5,98.4-173.2,152.9c0,0-30.1,9.9-35.3-2.4
	c0,0,134.1-64.9,136.9-158.6c0,0,0.9-18.8,20.2-16l-0.9,1.9c-3.8,19.3-7.5,40-7.5,40.5l0.5,1.9c0,0,10.4-25.4,14.6-44.2
	c0.5,0,0.5,0,0.9,0c0,0,3.3-0.5,8,0l6.1-23.1c0,0,0.9-1.9-0.9-6.6s17.9,0,14.6,2.4c-3.8,2.4-6.1,4.2-6.1,4.2l-6.1,23.5
	C292.4,79.5,309.3,84.7,307.9,102.1z"/>
</svg>
