<?xml version="1.0" encoding="utf-8"?>
<!-- Generator: Adobe Illustrator 24.1.2, SVG Export Plug-In . SVG Version: 6.00 Build 0)  -->
<svg version="1.1" id="Layer_1" xmlns="http://www.w3.org/2000/svg" xmlns:xlink="http://www.w3.org/1999/xlink" x="0px" y="0px"
	 viewBox="0 0 400.3 400" style="enable-background:new 0 0 400.3 400;" xml:space="preserve">
<g>
	<circle xmlns="http://www.w3.org/2000/svg" cx="200" cy="190" r="150" fill="#2CA982"/>
	<path id="vegetarian" class="st1" d=" M285.3,77c-13.8,31.3-77.3,40.7-77.3,40.7
			c-57.5,9.2-79.4,41.2-85.9,53.8c-5,8.1-7.8,17.2-8,27c-0.2,13.7,5.1,26.5,14.2,36.9c16-35.8,58.9-52.6,71-56.7
			c-12.3,9.8-65.3,55.9-58.6,115.7c0,0.5,0,1,0,1.5c0.1,1.3,0.2,2.5,0.4,3.8c0.1,0.7,0.2,1.5,0.3,2.2c0.2,1.4,0.9,4.9,4,5.1l10.1,0
			c0,0,5.3-0.1,3.5-4.6c-5.5-15.1-7.1-33.1,1.2-46.3c8.4,2.9,17.5,4.5,27.1,4.6c24.3,0.3,46.1-9.1,59.8-23.9
			C297.6,188.8,285.3,77,285.3,77z" fill="#FFFFFF"/>

</g>
</svg>
